<?xml version="1.0" encoding="utf-8"?><svg viewBox="0 0 243 243" xmlns="http://www.w3.org/2000/svg" xmlns:xlink="http://www.w3.org/1999/xlink"><style>:root>svg{display:none}:root>svg:target{display:block}</style><svg fill="none" viewBox="0 0 243 243" id="Ellipse" xmlns="http://www.w3.org/2000/svg"><circle cx="121.5" cy="121.5" r="121.5" fill="#EDF7FA"/></svg><svg viewBox="0 0 30 30" id="Linkedin" xmlns="http://www.w3.org/2000/svg"><path d="M25.605 0H4.395A4.4 4.4 0 0 0 0 4.395v21.21A4.4 4.4 0 0 0 4.395 30h21.21A4.4 4.4 0 0 0 30 25.605V4.395A4.4 4.4 0 0 0 25.605 0Zm-15 23.79H7.09V11.483h3.515V23.79Zm0-14.063H7.09V6.21h3.515v3.516ZM22.91 23.789h-3.515v-7.031A1.76 1.76 0 0 0 17.637 15a1.76 1.76 0 0 0-1.758 1.758v7.031h-3.516V11.484h3.516v.663c.92-.286 1.52-.663 2.637-.663 2.384.003 4.394 2.142 4.394 4.67v7.635Z"/></svg><svg fill="none" viewBox="0 0 24 24" id="close" xmlns="http://www.w3.org/2000/svg"><path d="m7 7 10 10M7 17 17 7" stroke="#292929" stroke-linecap="round" stroke-linejoin="round" stroke-width="2"/></svg><svg viewBox="0 0 30 30" id="fb" xmlns="http://www.w3.org/2000/svg"><path d="M25.605 0H4.395A4.4 4.4 0 0 0 0 4.395v21.21A4.4 4.4 0 0 0 4.395 30h8.847V19.395H9.727V14.12h3.515v-3.574a5.28 5.28 0 0 1 5.274-5.274h5.332v5.274h-5.332v3.574h5.332l-.88 5.274h-4.452V30h7.09A4.4 4.4 0 0 0 30 25.605V4.395A4.4 4.4 0 0 0 25.605 0Z"/></svg><svg viewBox="0 0 30 30" id="insta" xmlns="http://www.w3.org/2000/svg"><path d="M21.72 0H8.28C3.714 0 0 3.714 0 8.279V21.72C0 26.286 3.714 30 8.279 30H21.72C26.286 30 30 26.286 30 21.721V8.28C30 3.714 26.286 0 21.72 0Zm5.618 21.721a5.624 5.624 0 0 1-5.617 5.617H8.28a5.623 5.623 0 0 1-5.617-5.617V8.28a5.624 5.624 0 0 1 5.617-5.617H21.72a5.624 5.624 0 0 1 5.617 5.617V21.72Z"/><path d="M15 7.27c-4.262 0-7.73 3.468-7.73 7.73 0 4.263 3.468 7.73 7.73 7.73 4.262 0 7.73-3.467 7.73-7.73 0-4.262-3.468-7.73-7.73-7.73Zm0 12.798A5.074 5.074 0 0 1 9.932 15 5.074 5.074 0 0 1 15 9.932 5.074 5.074 0 0 1 20.069 15 5.074 5.074 0 0 1 15 20.068ZM23.055 5.013a1.96 1.96 0 0 0-1.38.572 1.962 1.962 0 0 0-.573 1.38c0 .513.21 1.017.574 1.38.362.363.866.572 1.379.572a1.97 1.97 0 0 0 1.38-.571c.364-.364.571-.868.571-1.38a1.96 1.96 0 0 0-.571-1.381 1.96 1.96 0 0 0-1.38-.572Z"/></svg><svg viewBox="0 0 76 76" style="enable-background:new 0 0 76 76" xml:space="preserve" id="menu" xmlns="http://www.w3.org/2000/svg"><path d="M38 0C17 0 0 17 0 38s17 38 38 38 38-17 38-38S59 0 38 0zm0 72C19.2 72 4 56.8 4 38S19.2 4 38 4s34 15.2 34 34-15.2 34-34 34zm19.5-34c0 1.1-.9 2-2 2h-35c-1.1 0-2-.9-2-2s.9-2 2-2h35c1.1 0 2 .9 2 2zm0 12c0 1.1-.9 2-2 2h-35c-1.1 0-2-.9-2-2s.9-2 2-2h35c1.1 0 2 .9 2 2zm0-24c0 1.1-.9 2-2 2h-35c-1.1 0-2-.9-2-2s.9-2 2-2h35c1.1 0 2 .9 2 2z"/></svg><svg viewBox="0 0 37 30" id="twiter" xmlns="http://www.w3.org/2000/svg"><path d="M36.923 3.552a15.782 15.782 0 0 1-4.361 1.195 7.526 7.526 0 0 0 3.33-4.184 15.126 15.126 0 0 1-4.8 1.832A7.585 7.585 0 0 0 25.561 0c-4.19 0-7.564 3.402-7.564 7.572 0 .6.05 1.176.175 1.726C11.88 8.99 6.312 5.975 2.571 1.38a7.62 7.62 0 0 0-1.036 3.826 7.58 7.58 0 0 0 3.362 6.29 7.475 7.475 0 0 1-3.42-.931v.083c0 3.678 2.624 6.733 6.065 7.437a7.558 7.558 0 0 1-1.985.25c-.485 0-.974-.028-1.433-.13.98 2.998 3.764 5.202 7.073 5.274a15.21 15.21 0 0 1-9.385 3.228c-.621 0-1.217-.028-1.812-.104C3.353 28.765 7.327 30 11.612 30c13.93 0 21.545-11.538 21.545-21.54 0-.335-.012-.658-.028-.978 1.503-1.067 2.765-2.398 3.794-3.93Z"/></svg></svg>